<?xml version="1.0" encoding="UTF-8" standalone="no"?>
<!-- Created with Inkscape (http://www.inkscape.org/) -->

<svg
   width="32"
   height="32"
   viewBox="0 0 8.4666666 8.4666666"
   version="1.1"
   id="svg5"
   inkscape:version="1.1.2 (b8e25be833, 2022-02-05)"
   sodipodi:docname="favicon-silhouette.svg"
   xmlns:inkscape="http://www.inkscape.org/namespaces/inkscape"
   xmlns:sodipodi="http://sodipodi.sourceforge.net/DTD/sodipodi-0.dtd"
   xmlns="http://www.w3.org/2000/svg"
   xmlns:svg="http://www.w3.org/2000/svg">
  <sodipodi:namedview
     id="namedview7"
     pagecolor="#ffffff"
     bordercolor="#999999"
     borderopacity="1"
     inkscape:pageshadow="0"
     inkscape:pageopacity="0"
     inkscape:pagecheckerboard="0"
     inkscape:document-units="px"
     showgrid="true"
     units="px"
     inkscape:zoom="11.313709"
     inkscape:cx="13.744388"
     inkscape:cy="18.782524"
     inkscape:window-width="1920"
     inkscape:window-height="991"
     inkscape:window-x="-9"
     inkscape:window-y="-9"
     inkscape:window-maximized="1"
     inkscape:current-layer="layer1">
    <inkscape:grid
       type="xygrid"
       id="grid824"
       empspacing="4" />
  </sodipodi:namedview>
  <defs
     id="defs2">
    <clipPath
       clipPathUnits="userSpaceOnUse"
       id="clipPath3880">
      <ellipse
         style="fill:#2b1100;fill-opacity:1;stroke:none;stroke-width:0.132292;stroke-linecap:round;stroke-linejoin:round;stroke-miterlimit:4;stroke-dasharray:none;stroke-opacity:1"
         id="ellipse3882"
         cx="4.2333331"
         cy="5.1593752"
         rx="1.0583333"
         ry="1.190625" />
    </clipPath>
  </defs>
  <g
     inkscape:label="Layer 1"
     inkscape:groupmode="layer"
     id="layer1">
    <path
       id="rect848"
       style="fill:#000000;stroke-width:1;stroke-linecap:round;stroke-linejoin:round"
       d="M 7,2 C 6.4460002,2 6,2.4460003 6,3 v 26 c 0,0.554 0.4460002,1 1,1 h 18 c 0.553999,0 1,-0.446 1,-1 V 3 C 26,2.4460003 25.553999,2 25,2 Z m 1,1 h 16 c 0.554,0 1,0.4460001 1,1 v 24 c 0,0.554 -0.446,1 -1,1 H 8 C 7.4459999,29 7,28.554 7,28 V 4 C 7,3.4460001 7.4459999,3 8,3 Z"
       transform="scale(0.26458333)" />
    <path
       style="fill:#000000;fill-opacity:1;stroke:none;stroke-width:0.132292;stroke-linecap:round;stroke-linejoin:round;stroke-miterlimit:4;stroke-dasharray:none;stroke-opacity:1"
       d="M 2.38125,1.8520833 2.6458333,1.3229166 h 3.4395833 c 0,0 -0.2645833,0.5291667 -0.2645833,0.5291667 z"
       id="path1131" />
    <path
       id="rect1550-7"
       clip-path="url(#clipPath3880)"
       style="fill:#000000;stroke-width:0.303119;stroke-linecap:round;stroke-linejoin:round"
       d="M 2.6458327,2.1166666 H 5.820833 c 0.1465792,0 0.2645833,0.1180041 0.2645833,0.2645833 v 1.8520835 c 0,0.1465791 -0.1180041,0.2645833 -0.2645833,0.2645833 H 2.6458327 c -0.1465791,0 -0.2645833,-0.1180042 -0.2645833,-0.2645833 V 2.3812499 c 0,-0.1465792 0.1180042,-0.2645833 0.2645833,-0.2645833 z" />
    <path
       id="path2988"
       style="fill:none;stroke:#000000;stroke-width:0.999999px;stroke-linecap:round;stroke-linejoin:round;stroke-opacity:1"
       d="m 10,19 h 6 z m 0,2 h 8 z m 0,2 h 10 z m 0,2 h 3 z"
       transform="scale(0.26458333)" />
    <path
       id="path3678"
       style="fill:#000000;stroke-width:0.132292;stroke-linecap:round;stroke-linejoin:round"
       d="M 4.7624997,3.175 A 0.52916664,0.52916664 0 0 1 4.2333331,3.7041666 0.52916664,0.52916664 0 0 1 3.7041665,3.175 0.52916664,0.52916664 0 0 1 4.2333331,2.6458333 0.52916664,0.52916664 0 0 1 4.7624997,3.175 Z" />
    <rect
       style="fill:none;stroke:#000000;stroke-width:0.132292;stroke-linecap:round;stroke-linejoin:round"
       id="rect2040"
       width="3.7041667"
       height="2.3812499"
       x="2.3812499"
       y="2.1166666"
       ry="0.26458332" />
  </g>
</svg>
