<?xml version="1.0" standalone="no"?>
<!DOCTYPE svg PUBLIC "-//W3C//DTD SVG 20010904//EN"
 "http://www.w3.org/TR/2001/REC-SVG-20010904/DTD/svg10.dtd">
<svg version="1.0" xmlns="http://www.w3.org/2000/svg"
 width="700.000000pt" height="700.000000pt" viewBox="0 0 700.000000 700.000000"
 preserveAspectRatio="xMidYMid meet">
<metadata>
Created by potrace 1.14, written by Peter Selinger 2001-2017
</metadata>
<g transform="translate(0.000000,700.000000) scale(0.100000,-0.100000)"
fill="#000000" stroke="none">
<path d="M1499 6559 c-70 -12 -130 -56 -167 -124 -16 -28 -17 -251 -19 -2915
-2 -3216 -8 -2945 69 -3020 23 -23 56 -44 81 -51 31 -9 553 -12 2036 -13 1679
-1 2000 1 2037 13 48 15 104 64 131 114 17 30 18 189 20 2917 2 3223 9 2946
-69 3021 -23 22 -58 44 -82 50 -30 9 -569 12 -2022 13 -1090 0 -1996 -2 -2015
-5z"/>
</g>
</svg>
